<svg width="264" height="295" viewBox="0 0 264 295" fill="none" xmlns="http://www.w3.org/2000/svg">
<path d="M25.5667 264.928C25.5667 264.928 33.1155 297.323 80.2684 289.031L88.3245 267.348L74.7532 250.865L37.1951 237.028L25.5874 264.928" fill="#34484C"/>
<path d="M175.857 204.214C175.857 215.7 170.585 218.719 157.253 225.011L43.362 278.743C40.9175 278.743 38.4969 278.205 36.2385 277.159C33.9802 276.114 31.9282 274.581 30.1999 272.65C28.4715 270.718 27.1007 268.425 26.1656 265.901C25.2305 263.377 24.7495 260.672 24.75 257.941V79.143C24.75 67.6472 30.7973 63.8214 43.362 58.3409L157.253 4.60938C159.697 4.60937 162.117 5.14738 164.375 6.19267C166.632 7.23796 168.683 8.77003 170.411 10.7014C172.139 12.6327 173.509 14.9255 174.443 17.4487C175.378 19.9719 175.858 22.6761 175.857 25.4069V204.251" fill="#085B50"/>
<path d="M35.1038 276.553C35.1038 276.553 77.7851 290.243 80.2725 289.063C82.7681 287.888 78.6844 268.381 78.6844 268.381L63.2528 249.791L48.873 249.045L46.3444 253.055L35.1038 276.553Z" fill="#34484C"/>
<path d="M154.572 16.9625L28.2315 76.2667L34.155 114.294L52.965 116.382L115.719 105.094L154.741 82.2451L183.472 38.2855C177.194 25.7019 167.978 17.9166 154.572 16.9533" fill="#F4F5F5"/>
<path d="M61.7059 89.4219C61.7059 86.0801 62.2256 83.4205 63.2527 81.1527C50.3167 79.8067 38.0985 75.6214 29.2009 66.6562C26.2474 69.6984 24.7871 73.478 24.7871 79.1015V257.904C24.7882 263.42 26.7493 268.709 30.2394 272.61C33.7295 276.511 38.4629 278.703 43.3991 278.706L61.7842 270.026C61.7307 269.426 61.7031 268.823 61.7017 268.22L61.7059 89.4219Z" fill="#34484C"/>
<path d="M216.059 221.835C216.059 233.322 210.792 236.341 197.447 242.633L80.2725 289.049C75.337 289.048 70.604 286.856 67.1145 282.956C63.6249 279.056 61.6646 273.767 61.6646 268.252V89.4541C61.6646 77.9537 67.7119 74.1326 80.2725 68.6428L197.447 22.2218C199.892 22.2206 202.312 22.7577 204.571 23.8024C206.83 24.8472 208.882 26.3791 210.61 28.3105C212.339 30.242 213.71 32.5352 214.645 35.059C215.58 37.5828 216.06 40.2878 216.059 43.0193V221.863" fill="#089083"/>
<path d="M172.372 75.9371C172.491 76.2818 172.549 76.6494 172.541 77.019C172.533 77.3886 172.46 77.7528 172.326 78.0907C172.192 78.4286 171.999 78.7336 171.759 78.9881C171.52 79.2426 171.237 79.4417 170.928 79.5739L108.599 106.442C108.292 106.576 107.963 106.64 107.633 106.631C107.303 106.621 106.978 106.539 106.676 106.388C106.375 106.237 106.104 106.02 105.878 105.751C105.652 105.482 105.476 105.165 105.361 104.819C105.238 104.477 105.177 104.111 105.182 103.742C105.188 103.373 105.259 103.01 105.392 102.672C105.525 102.334 105.717 102.03 105.957 101.777C106.197 101.523 106.479 101.326 106.788 101.196L169.109 74.3284C170.417 73.7753 171.873 74.4944 172.368 75.9417M172.372 88.7512C172.491 89.0959 172.548 89.4634 172.54 89.8328C172.532 90.2022 172.459 90.5662 172.324 90.904C172.19 91.2417 171.998 91.5466 171.758 91.8013C171.519 92.0559 171.237 92.2553 170.928 92.388L108.599 119.256C108.292 119.39 107.964 119.455 107.634 119.446C107.305 119.437 106.98 119.355 106.679 119.205C106.377 119.055 106.106 118.84 105.88 118.572C105.653 118.303 105.477 117.988 105.361 117.643C105.238 117.3 105.178 116.933 105.183 116.564C105.189 116.195 105.26 115.83 105.393 115.492C105.526 115.154 105.718 114.849 105.957 114.594C106.197 114.34 106.479 114.141 106.788 114.011L169.109 87.1425C169.417 87.0085 169.746 86.9437 170.077 86.9517C170.407 86.9598 170.733 87.0407 171.036 87.1897C171.339 87.3386 171.612 87.5528 171.84 87.82C172.069 88.0871 172.248 88.402 172.368 88.7466M151.182 111.116C151.685 112.572 151.376 114.047 150.48 114.435L107.927 132.771C107.036 133.149 105.914 132.282 105.419 130.835C104.924 129.378 105.233 127.903 106.12 127.53L148.682 109.185C149.561 108.807 150.695 109.659 151.182 111.116Z" fill="#78111F"/>
</svg>
